<?xml version="1.0" encoding="UTF-8"?>
<!-- PLACEHOLDER logo (icon badge). Drop your real logo at public/logo.png to
     override this everywhere automatically. -->
<svg xmlns="http://www.w3.org/2000/svg" viewBox="0 0 64 64" width="64" height="64" role="img" aria-label="Togo Insight">
  <defs>
    <linearGradient id="g" x1="0" y1="0" x2="1" y2="1">
      <stop offset="0" stop-color="#2563eb"/>
      <stop offset="1" stop-color="#22d3ee"/>
    </linearGradient>
  </defs>
  <rect x="2" y="2" width="60" height="60" rx="16" fill="url(#g)"/>
  <!-- antenna + mast -->
  <circle cx="32" cy="19" r="3.2" fill="#ffffff"/>
  <path d="M29 23 L24 47 H40 L35 23 Z" fill="none" stroke="#ffffff" stroke-width="3" stroke-linejoin="round"/>
  <path d="M27.6 39 H36.4" stroke="#ffffff" stroke-width="3" stroke-linecap="round"/>
  <!-- signal waves -->
  <g fill="none" stroke="#ffffff" stroke-width="3" stroke-linecap="round" opacity="0.95">
    <path d="M40.5 15 a12 12 0 0 1 0 13"/>
    <path d="M46 11 a19 19 0 0 1 0 21"/>
    <path d="M23.5 15 a12 12 0 0 0 0 13"/>
    <path d="M18 11 a19 19 0 0 0 0 21"/>
  </g>
</svg>
